<mxfile host="app.diagrams.net" agent="Mozilla/5.0 (Windows NT 10.0; Win64; x64) AppleWebKit/537.36 (KHTML, like Gecko) Chrome/129.0.0.0 Safari/537.36" version="24.7.16">
  <diagram name="Page-1" id="HmDWgCHZoGsucCmh2yRy">
    <mxGraphModel grid="1" page="1" gridSize="10" guides="1" tooltips="1" connect="1" arrows="1" fold="1" pageScale="1" pageWidth="850" pageHeight="1100" math="0" shadow="0">
      <root>
        <mxCell id="0" />
        <mxCell id="1" parent="0" />
        <mxCell id="kiB-AAAZPJnEkpQEN8aF-27" style="edgeStyle=orthogonalEdgeStyle;rounded=0;orthogonalLoop=1;jettySize=auto;html=1;exitX=0.5;exitY=1;exitDx=0;exitDy=0;exitPerimeter=0;entryX=0.5;entryY=0;entryDx=0;entryDy=0;" edge="1" parent="1" source="kiB-AAAZPJnEkpQEN8aF-24" target="kiB-AAAZPJnEkpQEN8aF-26">
          <mxGeometry relative="1" as="geometry" />
        </mxCell>
        <mxCell id="kiB-AAAZPJnEkpQEN8aF-24" value="mulai" style="strokeWidth=2;html=1;shape=mxgraph.flowchart.start_1;whiteSpace=wrap;fillColor=#dae8fc;strokeColor=#6c8ebf;" vertex="1" parent="1">
          <mxGeometry x="360" y="-240" width="100" height="60" as="geometry" />
        </mxCell>
        <mxCell id="oVVpKQRv0S6h3LjrqoJQ-3" style="edgeStyle=orthogonalEdgeStyle;rounded=0;orthogonalLoop=1;jettySize=auto;html=1;exitX=0.5;exitY=1;exitDx=0;exitDy=0;entryX=0.5;entryY=0;entryDx=0;entryDy=0;" edge="1" parent="1" source="kiB-AAAZPJnEkpQEN8aF-26" target="oVVpKQRv0S6h3LjrqoJQ-2">
          <mxGeometry relative="1" as="geometry" />
        </mxCell>
        <mxCell id="kiB-AAAZPJnEkpQEN8aF-26" value="&quot;masukkan username : &quot;" style="shape=parallelogram;html=1;strokeWidth=2;perimeter=parallelogramPerimeter;whiteSpace=wrap;rounded=1;arcSize=12;size=0.23;" vertex="1" parent="1">
          <mxGeometry x="360" y="-150" width="100" height="60" as="geometry" />
        </mxCell>
        <mxCell id="kiB-AAAZPJnEkpQEN8aF-59" style="edgeStyle=orthogonalEdgeStyle;rounded=0;orthogonalLoop=1;jettySize=auto;html=1;exitX=0.5;exitY=0;exitDx=0;exitDy=0;entryX=0.5;entryY=1;entryDx=0;entryDy=0;" edge="1" parent="1" source="kiB-AAAZPJnEkpQEN8aF-38" target="kiB-AAAZPJnEkpQEN8aF-58">
          <mxGeometry relative="1" as="geometry" />
        </mxCell>
        <mxCell id="kiB-AAAZPJnEkpQEN8aF-38" value="output&amp;nbsp;&lt;div&gt;&quot;username atau paasord salah&quot;&lt;/div&gt;" style="shape=parallelogram;html=1;strokeWidth=2;perimeter=parallelogramPerimeter;whiteSpace=wrap;rounded=1;arcSize=12;size=0.23;" vertex="1" parent="1">
          <mxGeometry x="560" y="478" width="150" height="60" as="geometry" />
        </mxCell>
        <mxCell id="kiB-AAAZPJnEkpQEN8aF-82" style="edgeStyle=orthogonalEdgeStyle;rounded=0;orthogonalLoop=1;jettySize=auto;html=1;exitX=1;exitY=0.5;exitDx=0;exitDy=0;exitPerimeter=0;entryX=0.5;entryY=1;entryDx=0;entryDy=0;" edge="1" parent="1" source="kiB-AAAZPJnEkpQEN8aF-41" target="kiB-AAAZPJnEkpQEN8aF-38">
          <mxGeometry relative="1" as="geometry" />
        </mxCell>
        <mxCell id="kiB-AAAZPJnEkpQEN8aF-84" value="no" style="edgeLabel;html=1;align=center;verticalAlign=middle;resizable=0;points=[];" connectable="0" vertex="1" parent="kiB-AAAZPJnEkpQEN8aF-82">
          <mxGeometry x="-0.6043" y="-1" relative="1" as="geometry">
            <mxPoint as="offset" />
          </mxGeometry>
        </mxCell>
        <mxCell id="oVVpKQRv0S6h3LjrqoJQ-7" style="edgeStyle=orthogonalEdgeStyle;rounded=0;orthogonalLoop=1;jettySize=auto;html=1;exitX=0.5;exitY=1;exitDx=0;exitDy=0;exitPerimeter=0;entryX=0.5;entryY=0;entryDx=0;entryDy=0;" edge="1" parent="1" source="kiB-AAAZPJnEkpQEN8aF-41" target="kiB-AAAZPJnEkpQEN8aF-107">
          <mxGeometry relative="1" as="geometry" />
        </mxCell>
        <mxCell id="oVVpKQRv0S6h3LjrqoJQ-8" value="yes" style="edgeLabel;html=1;align=center;verticalAlign=middle;resizable=0;points=[];" connectable="0" vertex="1" parent="oVVpKQRv0S6h3LjrqoJQ-7">
          <mxGeometry x="-0.6769" y="3" relative="1" as="geometry">
            <mxPoint as="offset" />
          </mxGeometry>
        </mxCell>
        <mxCell id="kiB-AAAZPJnEkpQEN8aF-41" value="username = rifqi atau password = 112" style="strokeWidth=2;html=1;shape=mxgraph.flowchart.decision;whiteSpace=wrap;" vertex="1" parent="1">
          <mxGeometry x="345" y="490" width="130" height="130" as="geometry" />
        </mxCell>
        <mxCell id="kiB-AAAZPJnEkpQEN8aF-54" style="edgeStyle=orthogonalEdgeStyle;rounded=0;orthogonalLoop=1;jettySize=auto;html=1;exitX=0.5;exitY=0;exitDx=0;exitDy=0;entryX=0.5;entryY=1;entryDx=0;entryDy=0;" edge="1" parent="1" source="kiB-AAAZPJnEkpQEN8aF-48" target="kiB-AAAZPJnEkpQEN8aF-52">
          <mxGeometry relative="1" as="geometry" />
        </mxCell>
        <mxCell id="kiB-AAAZPJnEkpQEN8aF-48" value="output &quot;jika salah 3 kali&amp;nbsp;&lt;div&gt;program kan berhenti&quot;&lt;/div&gt;" style="shape=parallelogram;html=1;strokeWidth=2;perimeter=parallelogramPerimeter;whiteSpace=wrap;rounded=1;arcSize=12;size=0.23;" vertex="1" parent="1">
          <mxGeometry x="530" y="290" width="200" height="70" as="geometry" />
        </mxCell>
        <mxCell id="kiB-AAAZPJnEkpQEN8aF-52" value="ulang+=1" style="rounded=0;whiteSpace=wrap;html=1;" vertex="1" parent="1">
          <mxGeometry x="570" y="210" width="120" height="60" as="geometry" />
        </mxCell>
        <mxCell id="kiB-AAAZPJnEkpQEN8aF-60" style="edgeStyle=orthogonalEdgeStyle;rounded=0;orthogonalLoop=1;jettySize=auto;html=1;exitX=0.5;exitY=0;exitDx=0;exitDy=0;entryX=0.5;entryY=1;entryDx=0;entryDy=0;" edge="1" parent="1" source="kiB-AAAZPJnEkpQEN8aF-58" target="kiB-AAAZPJnEkpQEN8aF-48">
          <mxGeometry relative="1" as="geometry" />
        </mxCell>
        <mxCell id="kiB-AAAZPJnEkpQEN8aF-58" value="output&amp;nbsp;&lt;div&gt;&lt;span style=&quot;background-color: initial;&quot;&gt;&quot;kesalahan ke =&quot; + ulang&lt;/span&gt;&lt;/div&gt;" style="shape=parallelogram;html=1;strokeWidth=2;perimeter=parallelogramPerimeter;whiteSpace=wrap;rounded=1;arcSize=12;size=0.23;" vertex="1" parent="1">
          <mxGeometry x="530" y="380" width="190" height="70" as="geometry" />
        </mxCell>
        <mxCell id="kiB-AAAZPJnEkpQEN8aF-73" style="edgeStyle=orthogonalEdgeStyle;rounded=0;orthogonalLoop=1;jettySize=auto;html=1;exitX=0;exitY=0.5;exitDx=0;exitDy=0;exitPerimeter=0;" edge="1" parent="1" source="kiB-AAAZPJnEkpQEN8aF-71">
          <mxGeometry relative="1" as="geometry">
            <mxPoint x="410" y="110" as="targetPoint" />
          </mxGeometry>
        </mxCell>
        <mxCell id="kiB-AAAZPJnEkpQEN8aF-74" value="no" style="edgeLabel;html=1;align=center;verticalAlign=middle;resizable=0;points=[];" connectable="0" vertex="1" parent="kiB-AAAZPJnEkpQEN8aF-73">
          <mxGeometry x="-0.6847" y="-1" relative="1" as="geometry">
            <mxPoint as="offset" />
          </mxGeometry>
        </mxCell>
        <mxCell id="kiB-AAAZPJnEkpQEN8aF-155" style="edgeStyle=orthogonalEdgeStyle;rounded=0;orthogonalLoop=1;jettySize=auto;html=1;exitX=1;exitY=0.5;exitDx=0;exitDy=0;exitPerimeter=0;entryX=0;entryY=0.25;entryDx=0;entryDy=0;" edge="1" parent="1" source="kiB-AAAZPJnEkpQEN8aF-71" target="kiB-AAAZPJnEkpQEN8aF-154">
          <mxGeometry relative="1" as="geometry" />
        </mxCell>
        <mxCell id="kiB-AAAZPJnEkpQEN8aF-71" value="ulang &amp;gt;=3" style="strokeWidth=2;html=1;shape=mxgraph.flowchart.decision;whiteSpace=wrap;" vertex="1" parent="1">
          <mxGeometry x="580" y="60" width="100" height="100" as="geometry" />
        </mxCell>
        <mxCell id="kiB-AAAZPJnEkpQEN8aF-72" style="edgeStyle=orthogonalEdgeStyle;rounded=0;orthogonalLoop=1;jettySize=auto;html=1;exitX=0.5;exitY=0;exitDx=0;exitDy=0;entryX=0.5;entryY=1;entryDx=0;entryDy=0;entryPerimeter=0;" edge="1" parent="1" source="kiB-AAAZPJnEkpQEN8aF-52" target="kiB-AAAZPJnEkpQEN8aF-71">
          <mxGeometry relative="1" as="geometry" />
        </mxCell>
        <mxCell id="kiB-AAAZPJnEkpQEN8aF-83" value="ulang =0" style="rounded=0;whiteSpace=wrap;html=1;" vertex="1" parent="1">
          <mxGeometry x="350" y="10" width="120" height="60" as="geometry" />
        </mxCell>
        <mxCell id="kiB-AAAZPJnEkpQEN8aF-124" style="edgeStyle=orthogonalEdgeStyle;rounded=0;orthogonalLoop=1;jettySize=auto;html=1;exitX=0.5;exitY=1;exitDx=0;exitDy=0;entryX=0.5;entryY=0;entryDx=0;entryDy=0;" edge="1" parent="1" source="kiB-AAAZPJnEkpQEN8aF-107" target="kiB-AAAZPJnEkpQEN8aF-123">
          <mxGeometry relative="1" as="geometry" />
        </mxCell>
        <mxCell id="kiB-AAAZPJnEkpQEN8aF-107" value="output &quot;silahkan pilih&amp;nbsp;&lt;div&gt;mobil yang anda mau&quot;&lt;/div&gt;" style="shape=parallelogram;html=1;strokeWidth=2;perimeter=parallelogramPerimeter;whiteSpace=wrap;rounded=1;arcSize=12;size=0.23;" vertex="1" parent="1">
          <mxGeometry x="331" y="750" width="158" height="80" as="geometry" />
        </mxCell>
        <mxCell id="kiB-AAAZPJnEkpQEN8aF-112" value="input&amp;nbsp;&lt;div&gt;1 = tesla&lt;/div&gt;&lt;div&gt;2 = toyota&lt;/div&gt;&lt;div&gt;3 = hyundai&lt;/div&gt;&lt;div&gt;4.= keluar&lt;/div&gt;" style="shape=parallelogram;html=1;strokeWidth=2;perimeter=parallelogramPerimeter;whiteSpace=wrap;rounded=1;arcSize=12;size=0.23;" vertex="1" parent="1">
          <mxGeometry x="335" y="1010" width="150" height="70" as="geometry" />
        </mxCell>
        <mxCell id="kiB-AAAZPJnEkpQEN8aF-120" style="edgeStyle=orthogonalEdgeStyle;rounded=0;orthogonalLoop=1;jettySize=auto;html=1;exitX=0.5;exitY=1;exitDx=0;exitDy=0;exitPerimeter=0;entryX=0.5;entryY=0;entryDx=0;entryDy=0;" edge="1" parent="1" source="kiB-AAAZPJnEkpQEN8aF-115" target="kiB-AAAZPJnEkpQEN8aF-118">
          <mxGeometry relative="1" as="geometry" />
        </mxCell>
        <mxCell id="kiB-AAAZPJnEkpQEN8aF-126" value="yes" style="edgeLabel;html=1;align=center;verticalAlign=middle;resizable=0;points=[];" connectable="0" vertex="1" parent="kiB-AAAZPJnEkpQEN8aF-120">
          <mxGeometry x="-0.1892" y="1" relative="1" as="geometry">
            <mxPoint as="offset" />
          </mxGeometry>
        </mxCell>
        <mxCell id="kiB-AAAZPJnEkpQEN8aF-115" value="pilih == 1" style="strokeWidth=2;html=1;shape=mxgraph.flowchart.decision;whiteSpace=wrap;" vertex="1" parent="1">
          <mxGeometry x="360" y="1160" width="100" height="100" as="geometry" />
        </mxCell>
        <mxCell id="kiB-AAAZPJnEkpQEN8aF-116" style="edgeStyle=orthogonalEdgeStyle;rounded=0;orthogonalLoop=1;jettySize=auto;html=1;exitX=0.5;exitY=1;exitDx=0;exitDy=0;entryX=0.5;entryY=0;entryDx=0;entryDy=0;entryPerimeter=0;" edge="1" parent="1" source="kiB-AAAZPJnEkpQEN8aF-112" target="kiB-AAAZPJnEkpQEN8aF-115">
          <mxGeometry relative="1" as="geometry" />
        </mxCell>
        <mxCell id="kiB-AAAZPJnEkpQEN8aF-122" style="edgeStyle=orthogonalEdgeStyle;rounded=0;orthogonalLoop=1;jettySize=auto;html=1;exitX=0.5;exitY=1;exitDx=0;exitDy=0;entryX=0.5;entryY=0;entryDx=0;entryDy=0;" edge="1" parent="1" source="kiB-AAAZPJnEkpQEN8aF-117" target="kiB-AAAZPJnEkpQEN8aF-119">
          <mxGeometry relative="1" as="geometry" />
        </mxCell>
        <mxCell id="kiB-AAAZPJnEkpQEN8aF-117" value="hargat = harga-(17/100*harga)" style="rounded=0;whiteSpace=wrap;html=1;" vertex="1" parent="1">
          <mxGeometry x="350" y="1490" width="120" height="60" as="geometry" />
        </mxCell>
        <mxCell id="kiB-AAAZPJnEkpQEN8aF-121" style="edgeStyle=orthogonalEdgeStyle;rounded=0;orthogonalLoop=1;jettySize=auto;html=1;exitX=0.5;exitY=1;exitDx=0;exitDy=0;entryX=0.5;entryY=0;entryDx=0;entryDy=0;" edge="1" parent="1" source="kiB-AAAZPJnEkpQEN8aF-118" target="kiB-AAAZPJnEkpQEN8aF-117">
          <mxGeometry relative="1" as="geometry" />
        </mxCell>
        <mxCell id="kiB-AAAZPJnEkpQEN8aF-118" value="input &quot;tesla sedang ada diskon sebesar17%&quot;" style="shape=parallelogram;html=1;strokeWidth=2;perimeter=parallelogramPerimeter;whiteSpace=wrap;rounded=1;arcSize=12;size=0.23;" vertex="1" parent="1">
          <mxGeometry x="298" y="1340" width="225" height="80" as="geometry" />
        </mxCell>
        <mxCell id="kiB-AAAZPJnEkpQEN8aF-119" value="output &quot;anda harus membayar sebanyak (hargat)" style="shape=parallelogram;html=1;strokeWidth=2;perimeter=parallelogramPerimeter;whiteSpace=wrap;rounded=1;arcSize=12;size=0.23;" vertex="1" parent="1">
          <mxGeometry x="335" y="1630" width="150" height="60" as="geometry" />
        </mxCell>
        <mxCell id="oVVpKQRv0S6h3LjrqoJQ-10" style="edgeStyle=orthogonalEdgeStyle;rounded=0;orthogonalLoop=1;jettySize=auto;html=1;exitX=0.5;exitY=1;exitDx=0;exitDy=0;" edge="1" parent="1" source="kiB-AAAZPJnEkpQEN8aF-123" target="kiB-AAAZPJnEkpQEN8aF-112">
          <mxGeometry relative="1" as="geometry" />
        </mxCell>
        <mxCell id="kiB-AAAZPJnEkpQEN8aF-123" value="input&amp;nbsp;&lt;div&gt;&quot;masukkan harga&quot;&lt;/div&gt;" style="shape=parallelogram;html=1;strokeWidth=2;perimeter=parallelogramPerimeter;whiteSpace=wrap;rounded=1;arcSize=12;size=0.23;" vertex="1" parent="1">
          <mxGeometry x="340" y="890" width="140" height="60" as="geometry" />
        </mxCell>
        <mxCell id="kiB-AAAZPJnEkpQEN8aF-133" style="edgeStyle=orthogonalEdgeStyle;rounded=0;orthogonalLoop=1;jettySize=auto;html=1;exitX=0.5;exitY=1;exitDx=0;exitDy=0;exitPerimeter=0;entryX=0.5;entryY=0;entryDx=0;entryDy=0;" edge="1" parent="1" source="kiB-AAAZPJnEkpQEN8aF-127" target="kiB-AAAZPJnEkpQEN8aF-130">
          <mxGeometry relative="1" as="geometry" />
        </mxCell>
        <mxCell id="kiB-AAAZPJnEkpQEN8aF-134" value="yes" style="edgeLabel;html=1;align=center;verticalAlign=middle;resizable=0;points=[];" connectable="0" vertex="1" parent="kiB-AAAZPJnEkpQEN8aF-133">
          <mxGeometry x="-0.4667" y="3" relative="1" as="geometry">
            <mxPoint as="offset" />
          </mxGeometry>
        </mxCell>
        <mxCell id="kiB-AAAZPJnEkpQEN8aF-127" value="pilih == 2" style="strokeWidth=2;html=1;shape=mxgraph.flowchart.decision;whiteSpace=wrap;" vertex="1" parent="1">
          <mxGeometry x="563" y="1280" width="100" height="100" as="geometry" />
        </mxCell>
        <mxCell id="kiB-AAAZPJnEkpQEN8aF-128" style="edgeStyle=orthogonalEdgeStyle;rounded=0;orthogonalLoop=1;jettySize=auto;html=1;exitX=1;exitY=0.5;exitDx=0;exitDy=0;exitPerimeter=0;entryX=0.5;entryY=0;entryDx=0;entryDy=0;entryPerimeter=0;" edge="1" parent="1" source="kiB-AAAZPJnEkpQEN8aF-115" target="kiB-AAAZPJnEkpQEN8aF-127">
          <mxGeometry relative="1" as="geometry" />
        </mxCell>
        <mxCell id="kiB-AAAZPJnEkpQEN8aF-129" value="no" style="edgeLabel;html=1;align=center;verticalAlign=middle;resizable=0;points=[];" connectable="0" vertex="1" parent="kiB-AAAZPJnEkpQEN8aF-128">
          <mxGeometry x="-0.7196" y="3" relative="1" as="geometry">
            <mxPoint as="offset" />
          </mxGeometry>
        </mxCell>
        <mxCell id="kiB-AAAZPJnEkpQEN8aF-135" style="edgeStyle=orthogonalEdgeStyle;rounded=0;orthogonalLoop=1;jettySize=auto;html=1;exitX=0.5;exitY=1;exitDx=0;exitDy=0;" edge="1" parent="1" source="kiB-AAAZPJnEkpQEN8aF-130" target="kiB-AAAZPJnEkpQEN8aF-131">
          <mxGeometry relative="1" as="geometry" />
        </mxCell>
        <mxCell id="kiB-AAAZPJnEkpQEN8aF-130" value="toyota sedang ada diskon sebesar21%" style="shape=parallelogram;html=1;strokeWidth=2;perimeter=parallelogramPerimeter;whiteSpace=wrap;rounded=1;arcSize=12;size=0.23;" vertex="1" parent="1">
          <mxGeometry x="515" y="1478" width="197" height="72" as="geometry" />
        </mxCell>
        <mxCell id="kiB-AAAZPJnEkpQEN8aF-131" value="hargaty= harga-(17/100*harga)" style="rounded=0;whiteSpace=wrap;html=1;" vertex="1" parent="1">
          <mxGeometry x="553" y="1610" width="120" height="60" as="geometry" />
        </mxCell>
        <mxCell id="kiB-AAAZPJnEkpQEN8aF-150" style="edgeStyle=orthogonalEdgeStyle;rounded=0;orthogonalLoop=1;jettySize=auto;html=1;exitX=0.5;exitY=1;exitDx=0;exitDy=0;" edge="1" parent="1" source="kiB-AAAZPJnEkpQEN8aF-132" target="kiB-AAAZPJnEkpQEN8aF-148">
          <mxGeometry relative="1" as="geometry" />
        </mxCell>
        <mxCell id="kiB-AAAZPJnEkpQEN8aF-132" value="output &quot;anda harus membayar sebanyak (hargaty)" style="shape=parallelogram;html=1;strokeWidth=2;perimeter=parallelogramPerimeter;whiteSpace=wrap;rounded=1;arcSize=12;size=0.23;" vertex="1" parent="1">
          <mxGeometry x="544" y="1740" width="150" height="60" as="geometry" />
        </mxCell>
        <mxCell id="kiB-AAAZPJnEkpQEN8aF-137" style="edgeStyle=orthogonalEdgeStyle;rounded=0;orthogonalLoop=1;jettySize=auto;html=1;exitX=0.5;exitY=1;exitDx=0;exitDy=0;entryX=0.46;entryY=0.067;entryDx=0;entryDy=0;entryPerimeter=0;" edge="1" parent="1" source="kiB-AAAZPJnEkpQEN8aF-131" target="kiB-AAAZPJnEkpQEN8aF-132">
          <mxGeometry relative="1" as="geometry" />
        </mxCell>
        <mxCell id="kiB-AAAZPJnEkpQEN8aF-139" value="pilih == 3" style="strokeWidth=2;html=1;shape=mxgraph.flowchart.decision;whiteSpace=wrap;" vertex="1" parent="1">
          <mxGeometry x="737" y="1390" width="100" height="100" as="geometry" />
        </mxCell>
        <mxCell id="kiB-AAAZPJnEkpQEN8aF-144" style="edgeStyle=orthogonalEdgeStyle;rounded=0;orthogonalLoop=1;jettySize=auto;html=1;exitX=0.5;exitY=1;exitDx=0;exitDy=0;entryX=0.5;entryY=0;entryDx=0;entryDy=0;" edge="1" parent="1" source="kiB-AAAZPJnEkpQEN8aF-140" target="kiB-AAAZPJnEkpQEN8aF-141">
          <mxGeometry relative="1" as="geometry" />
        </mxCell>
        <mxCell id="kiB-AAAZPJnEkpQEN8aF-140" value="toyota sedang ada diskon sebesar21%" style="shape=parallelogram;html=1;strokeWidth=2;perimeter=parallelogramPerimeter;whiteSpace=wrap;rounded=1;arcSize=12;size=0.23;" vertex="1" parent="1">
          <mxGeometry x="694" y="1590" width="197" height="72" as="geometry" />
        </mxCell>
        <mxCell id="kiB-AAAZPJnEkpQEN8aF-141" value="hargaty= harga-(17/100*harga)" style="rounded=0;whiteSpace=wrap;html=1;" vertex="1" parent="1">
          <mxGeometry x="732.5" y="1730" width="120" height="60" as="geometry" />
        </mxCell>
        <mxCell id="kiB-AAAZPJnEkpQEN8aF-142" value="output &quot;anda harus membayar sebanyak (hargaty)" style="shape=parallelogram;html=1;strokeWidth=2;perimeter=parallelogramPerimeter;whiteSpace=wrap;rounded=1;arcSize=12;size=0.23;" vertex="1" parent="1">
          <mxGeometry x="710" y="1860" width="150" height="60" as="geometry" />
        </mxCell>
        <mxCell id="kiB-AAAZPJnEkpQEN8aF-143" style="edgeStyle=orthogonalEdgeStyle;rounded=0;orthogonalLoop=1;jettySize=auto;html=1;exitX=0.5;exitY=1;exitDx=0;exitDy=0;exitPerimeter=0;entryX=0.472;entryY=0.153;entryDx=0;entryDy=0;entryPerimeter=0;" edge="1" parent="1" source="kiB-AAAZPJnEkpQEN8aF-139" target="kiB-AAAZPJnEkpQEN8aF-140">
          <mxGeometry relative="1" as="geometry" />
        </mxCell>
        <mxCell id="oVVpKQRv0S6h3LjrqoJQ-12" value="yes" style="edgeLabel;html=1;align=center;verticalAlign=middle;resizable=0;points=[];" connectable="0" vertex="1" parent="kiB-AAAZPJnEkpQEN8aF-143">
          <mxGeometry x="-0.6397" relative="1" as="geometry">
            <mxPoint as="offset" />
          </mxGeometry>
        </mxCell>
        <mxCell id="kiB-AAAZPJnEkpQEN8aF-145" style="edgeStyle=orthogonalEdgeStyle;rounded=0;orthogonalLoop=1;jettySize=auto;html=1;exitX=0.5;exitY=1;exitDx=0;exitDy=0;entryX=0.553;entryY=-0.05;entryDx=0;entryDy=0;entryPerimeter=0;" edge="1" parent="1" source="kiB-AAAZPJnEkpQEN8aF-141" target="kiB-AAAZPJnEkpQEN8aF-142">
          <mxGeometry relative="1" as="geometry" />
        </mxCell>
        <mxCell id="kiB-AAAZPJnEkpQEN8aF-146" style="edgeStyle=orthogonalEdgeStyle;rounded=0;orthogonalLoop=1;jettySize=auto;html=1;exitX=1;exitY=0.5;exitDx=0;exitDy=0;exitPerimeter=0;entryX=0.5;entryY=0;entryDx=0;entryDy=0;entryPerimeter=0;" edge="1" parent="1" source="kiB-AAAZPJnEkpQEN8aF-127" target="kiB-AAAZPJnEkpQEN8aF-139">
          <mxGeometry relative="1" as="geometry" />
        </mxCell>
        <mxCell id="kiB-AAAZPJnEkpQEN8aF-147" value="no" style="edgeLabel;html=1;align=center;verticalAlign=middle;resizable=0;points=[];" connectable="0" vertex="1" parent="kiB-AAAZPJnEkpQEN8aF-146">
          <mxGeometry x="-0.4611" y="-1" relative="1" as="geometry">
            <mxPoint as="offset" />
          </mxGeometry>
        </mxCell>
        <mxCell id="kiB-AAAZPJnEkpQEN8aF-148" value="end" style="strokeWidth=2;html=1;shape=mxgraph.flowchart.terminator;whiteSpace=wrap;fillColor=#dae8fc;strokeColor=#6c8ebf;" vertex="1" parent="1">
          <mxGeometry x="530" y="2040" width="100" height="60" as="geometry" />
        </mxCell>
        <mxCell id="kiB-AAAZPJnEkpQEN8aF-149" style="edgeStyle=orthogonalEdgeStyle;rounded=0;orthogonalLoop=1;jettySize=auto;html=1;exitX=0.5;exitY=1;exitDx=0;exitDy=0;entryX=0.5;entryY=0;entryDx=0;entryDy=0;entryPerimeter=0;" edge="1" parent="1" source="kiB-AAAZPJnEkpQEN8aF-119" target="kiB-AAAZPJnEkpQEN8aF-148">
          <mxGeometry relative="1" as="geometry" />
        </mxCell>
        <mxCell id="kiB-AAAZPJnEkpQEN8aF-151" style="edgeStyle=orthogonalEdgeStyle;rounded=0;orthogonalLoop=1;jettySize=auto;html=1;exitX=0.5;exitY=1;exitDx=0;exitDy=0;entryX=0.5;entryY=0;entryDx=0;entryDy=0;entryPerimeter=0;" edge="1" parent="1" source="kiB-AAAZPJnEkpQEN8aF-142" target="kiB-AAAZPJnEkpQEN8aF-148">
          <mxGeometry relative="1" as="geometry" />
        </mxCell>
        <mxCell id="kiB-AAAZPJnEkpQEN8aF-154" value="output&quot;anda melewati&lt;div&gt;&amp;nbsp;batas yang di tentukan&lt;/div&gt;" style="shape=parallelogram;html=1;strokeWidth=2;perimeter=parallelogramPerimeter;whiteSpace=wrap;rounded=1;arcSize=12;size=0.23;" vertex="1" parent="1">
          <mxGeometry x="904" y="87" width="170" height="70" as="geometry" />
        </mxCell>
        <mxCell id="oVVpKQRv0S6h3LjrqoJQ-4" style="edgeStyle=orthogonalEdgeStyle;rounded=0;orthogonalLoop=1;jettySize=auto;html=1;exitX=0.5;exitY=1;exitDx=0;exitDy=0;entryX=0.5;entryY=0;entryDx=0;entryDy=0;" edge="1" parent="1" source="oVVpKQRv0S6h3LjrqoJQ-2" target="kiB-AAAZPJnEkpQEN8aF-83">
          <mxGeometry relative="1" as="geometry" />
        </mxCell>
        <mxCell id="oVVpKQRv0S6h3LjrqoJQ-2" value="&quot;masukkan password : &quot;" style="shape=parallelogram;html=1;strokeWidth=2;perimeter=parallelogramPerimeter;whiteSpace=wrap;rounded=1;arcSize=12;size=0.23;" vertex="1" parent="1">
          <mxGeometry x="360" y="-70" width="100" height="60" as="geometry" />
        </mxCell>
        <mxCell id="oVVpKQRv0S6h3LjrqoJQ-5" style="edgeStyle=orthogonalEdgeStyle;rounded=0;orthogonalLoop=1;jettySize=auto;html=1;exitX=0.5;exitY=1;exitDx=0;exitDy=0;entryX=0.5;entryY=0;entryDx=0;entryDy=0;entryPerimeter=0;" edge="1" parent="1" source="kiB-AAAZPJnEkpQEN8aF-83" target="kiB-AAAZPJnEkpQEN8aF-41">
          <mxGeometry relative="1" as="geometry" />
        </mxCell>
        <mxCell id="oVVpKQRv0S6h3LjrqoJQ-11" style="edgeStyle=orthogonalEdgeStyle;rounded=0;orthogonalLoop=1;jettySize=auto;html=1;exitX=1;exitY=0.5;exitDx=0;exitDy=0;entryX=1;entryY=0.5;entryDx=0;entryDy=0;entryPerimeter=0;" edge="1" parent="1" source="kiB-AAAZPJnEkpQEN8aF-154" target="kiB-AAAZPJnEkpQEN8aF-148">
          <mxGeometry relative="1" as="geometry">
            <Array as="points">
              <mxPoint x="1055" y="2070" />
            </Array>
          </mxGeometry>
        </mxCell>
        <mxCell id="oVVpKQRv0S6h3LjrqoJQ-16" style="edgeStyle=orthogonalEdgeStyle;rounded=0;orthogonalLoop=1;jettySize=auto;html=1;exitX=0.5;exitY=1;exitDx=0;exitDy=0;" edge="1" parent="1">
          <mxGeometry relative="1" as="geometry">
            <mxPoint x="960" y="2070" as="targetPoint" />
            <mxPoint x="961" y="1590" as="sourcePoint" />
          </mxGeometry>
        </mxCell>
        <mxCell id="oVVpKQRv0S6h3LjrqoJQ-13" value="output &quot;terimakasih sudah berkunjung ke toko kami&quot;" style="shape=parallelogram;html=1;strokeWidth=2;perimeter=parallelogramPerimeter;whiteSpace=wrap;rounded=1;arcSize=12;size=0.23;" vertex="1" parent="1">
          <mxGeometry x="870" y="1650" width="180" height="90" as="geometry" />
        </mxCell>
        <mxCell id="oVVpKQRv0S6h3LjrqoJQ-22" value="" style="edgeStyle=orthogonalEdgeStyle;rounded=0;orthogonalLoop=1;jettySize=auto;html=1;" edge="1" parent="1" source="oVVpKQRv0S6h3LjrqoJQ-19" target="oVVpKQRv0S6h3LjrqoJQ-13">
          <mxGeometry relative="1" as="geometry" />
        </mxCell>
        <mxCell id="oVVpKQRv0S6h3LjrqoJQ-19" value="pilih == keluar" style="strokeWidth=2;html=1;shape=mxgraph.flowchart.decision;whiteSpace=wrap;" vertex="1" parent="1">
          <mxGeometry x="911" y="1460" width="100" height="100" as="geometry" />
        </mxCell>
        <mxCell id="oVVpKQRv0S6h3LjrqoJQ-20" style="edgeStyle=orthogonalEdgeStyle;rounded=0;orthogonalLoop=1;jettySize=auto;html=1;exitX=1;exitY=0.5;exitDx=0;exitDy=0;exitPerimeter=0;entryX=0.5;entryY=0;entryDx=0;entryDy=0;entryPerimeter=0;" edge="1" parent="1" source="kiB-AAAZPJnEkpQEN8aF-139" target="oVVpKQRv0S6h3LjrqoJQ-19">
          <mxGeometry relative="1" as="geometry" />
        </mxCell>
        <mxCell id="oVVpKQRv0S6h3LjrqoJQ-21" value="no" style="edgeLabel;html=1;align=center;verticalAlign=middle;resizable=0;points=[];" connectable="0" vertex="1" parent="oVVpKQRv0S6h3LjrqoJQ-20">
          <mxGeometry x="-0.6111" relative="1" as="geometry">
            <mxPoint as="offset" />
          </mxGeometry>
        </mxCell>
      </root>
    </mxGraphModel>
  </diagram>
</mxfile>
